# xmcd
#
# Track frame offsets:
#	150
#	9681
#	20007
#	29326
#	39169
#	50347
#	59174
#	69103
#	81303
#	90891
#	101248
#	113824
#	124428
#	137238
#	148385
#	159425
#	171485
#	181452
#	189814
#	199108
#	208729
#	218858
#	229831
#	244652
#	259360
#	270024
#	280936
#	290406
#	304411
#
# Disc length: 4194
#
# Revision: 4
# Processed by: cddbd v1.5.1PL0 Copyright (c) Steve Scherf et al.
# Submitted via: MusicWizard 6.0.0
# Normalized: r3:TSWAP
#
DISCID=b510601d
DTITLE=Bob Luman and Buddy Knox - More Of That Rocker and Greatest Hits
DYEAR=2001
DGENRE=Country
TTITLE0=Bob Luman - Let's Think About Living
TTITLE1=Bob Luman - Boom Boom Boom Yippy Yi Ya
TTITLE2=Bob Luman - Envy
TTITLE3=Bob Luman - Hey Joe
TTITLE4=Bob Luman - You've Got Everything
TTITLE5=Bob Luman - Love Creator
TTITLE6=Bob Luman - Louisiana Man
TTITLE7=Bob Luman - The Fool
TTITLE8=Bob Luman - My Baby Walks All Over Me
TTITLE9=Bob Luman - Old Friends
TTITLE10=Bob Luman - Big River Rose
TTITLE11=Bob Luman - Throwing Kisses
TTITLE12=Bob Luman - The Great Snowman
TTITLE13=Bob Luman - Pig Latin Song
TTITLE14=Bob Luman - Oh Lonesome Me
TTITLE15=Bob Luman - Bad Bad Day
TTITLE16=Buddy Knox - Party Doll
TTITLE17=Buddy Knox - Rockhouse
TTITLE18=Buddy Knox - Maybelline
TTITLE19=Buddy Knox - Storm Clouds
TTITLE20=Buddy Knox - Devil Woman
TTITLE21=Buddy Knox - Somebody Touched Me
TTITLE22=Buddy Knox - Hula Love
TTITLE23=Buddy Knox - Rock Your Little Baby To Sleep
TTITLE24=Buddy Knox - Lovey Dovey
TTITLE25=Buddy Knox - Ling Ting Tong
TTITLE26=Buddy Knox - I Think I'm Gonna Kill Myself
TTITLE27=Buddy Knox - I Washed My Hands In Muddy Water
TTITLE28=Buddy Knox - Travellin' Light
EXTD=YEAR: 2001
EXTT0=Boudleaux/Bryant
EXTT1=Unknown
EXTT2=John D. Loudermilk
EXTT3=Boudleaux/Bryant
EXTT4=F. and B. Bryant
EXTT5=Unknown
EXTT6=Doug Kershaw
EXTT7=Hazlewood/Ford - Debra Music Co.
EXTT8=Billy Mize - Lee Tal Publ. Co.
EXTT9=F and B. Bryant
EXTT10=B. and F. Bryant
EXTT11=John D. Loudermilk
EXTT12=John D. Loudermilk
EXTT13=John D. Loudermilk
EXTT14=Don Gibson
EXTT15=Don Gibson
EXTT16=Bowen/Knox/Alldred
EXTT17=Orbison/Jenkins
EXTT18=Berry/Fratto/Freed
EXTT19=J. Duncan
EXTT20=Knox
EXTT21=Ertegun
EXTT22=Bowen/Knox/Lanier/Alldred
EXTT23=Bowen/Knox/Lanier/Alldred
EXTT24=Curtis/Nuggy
EXTT25=Godwin
EXTT26=Knox
EXTT27=J. Babcock
EXTT28=Knox
PLAYORDER=
